<?xml version="1.0" encoding="UTF-8"?>
<svg width="58px" height="58px" viewBox="0 0 58 58" version="1.1" xmlns="http://www.w3.org/2000/svg" xmlns:xlink="http://www.w3.org/1999/xlink">
    <title>切片</title>
    <g id="首页" stroke="none" stroke-width="1" fill="none" fill-rule="evenodd">
        <g id="4-1-3审核模式--" transform="translate(-464.000000, -1471.000000)">
            <g id="输入框" transform="translate(0.000000, 1444.000000)">
                <g id="icon_phiz" transform="translate(32.000000, 16.000000)">
                    <g transform="translate(432.000000, 11.000000)">
                        <circle id="椭圆形" stroke="#4E5371" stroke-width="4" cx="29" cy="29" r="23"></circle>
                        <circle id="椭圆形" fill="#4E5371" cx="21" cy="22" r="3"></circle>
                        <circle id="椭圆形" fill="#4E5371" cx="37" cy="22" r="3"></circle>
                        <path d="M26.4193145,26.576823 L31.4435004,26.194527 C32.5448861,26.1107213 33.5056735,26.9356328 33.5894792,28.0370185 C33.601931,28.200661 33.5941934,28.365214 33.5664412,28.5269661 L32.7746802,33.1416871 C32.6313551,33.9770469 31.9770469,34.6313551 31.1416871,34.7746802 L26.5269661,35.5664412 C25.438304,35.7532261 24.4043499,35.0221101 24.217565,33.933448 C24.1898127,33.7716959 24.1820752,33.6071429 24.194527,33.4435004 L24.576823,28.4193145 C24.6517629,27.4344434 25.4344434,26.6517629 26.4193145,26.576823 Z" id="矩形" fill="#4E5371" transform="translate(29.000000, 31.000000) rotate(-315.000000) translate(-29.000000, -31.000000) "></path>
                    </g>
                </g>
            </g>
        </g>
    </g>
</svg>