<?xml version="1.0" encoding="UTF-8"?>
<svg width="58px" height="58px" viewBox="0 0 58 58" version="1.1" xmlns="http://www.w3.org/2000/svg" xmlns:xlink="http://www.w3.org/1999/xlink">
    <title>切片</title>
    <g id="首页" stroke="none" stroke-width="1" fill="none" fill-rule="evenodd">
        <g id="4-1-3审核模式--" transform="translate(-644.000000, -993.000000)">
            <g id="输入框" transform="translate(0.000000, 966.000000)">
                <g id="icon_keyboard" transform="translate(32.000000, 16.000000)">
                    <g transform="translate(612.000000, 11.000000)">
                        <rect id="矩形" stroke="#4E5371" stroke-width="4" x="7" y="12" width="44" height="34" rx="4"></rect>
                        <rect id="矩形" fill="#4E5371" x="19" y="36" width="20" height="4" rx="2"></rect>
                        <rect id="矩形" fill="#4E5371" x="14" y="18" width="6" height="6" rx="1"></rect>
                        <rect id="矩形" fill="#4E5371" x="22" y="18" width="6" height="6" rx="1"></rect>
                        <rect id="矩形" fill="#4E5371" x="30" y="18" width="6" height="6" rx="1"></rect>
                        <rect id="矩形" fill="#4E5371" x="38" y="18" width="6" height="6" rx="1"></rect>
                        <rect id="矩形" fill="#4E5371" x="14" y="26" width="6" height="6" rx="1"></rect>
                        <rect id="矩形" fill="#4E5371" x="22" y="26" width="6" height="6" rx="1"></rect>
                        <rect id="矩形" fill="#4E5371" x="30" y="26" width="6" height="6" rx="1"></rect>
                        <rect id="矩形" fill="#4E5371" x="38" y="26" width="6" height="6" rx="1"></rect>
                    </g>
                </g>
            </g>
        </g>
    </g>
</svg>